<svg version="1" xmlns="http://www.w3.org/2000/svg" width="4002.667" height="4002.667" viewBox="0 0 3002.000000 3002.000000"><path d="M1538 375.6c-8.5 4.7-19.1 10.5-23.5 12.8-4.4 2.4-11.1 6-15 8.1-57.7 31.2-77.4 41.8-89.5 48.3-3.6 1.9-8.7 4.7-11.5 6.2-2.7 1.5-7.9 4.3-11.5 6.2-14.1 7.6-68.8 37.2-73.5 39.8-2.7 1.5-8.6 4.7-13 7-4.4 2.4-18.8 10.1-32 17.3-13.2 7.1-27.4 14.8-31.5 17-4.1 2.2-9.7 5.2-12.5 6.7-2.7 1.5-10.2 5.5-16.5 8.9-6.3 3.4-12.2 6.6-13 7.1-.8.6-2.2 1.3-3 1.7-1.5.7-30.5 16.3-54.5 29.3-10.9 5.9-42.5 23-51 27.5-4.9 2.7-13.5 7.3-19 10.3-5.5 3-13.4 7.3-17.5 9.5-11.7 6.3-31 16.7-36.5 19.7-2.7 1.5-9.5 5.1-15 8-5.5 2.9-10.4 5.6-11 6-1 .7-8.5 4.8-24 13-4.4 2.3-10.2 5.5-13 7-6.5 3.6-15.8 8.5-27 14.5-4.9 2.6-9.4 5.1-10 5.5-.5.4-5.9 3.3-12 6.5-6 3.2-17.4 9.3-25.3 13.7-7.8 4.3-14.4 7.8-14.6 7.8-.3 0-3.5 1.7-7.3 3.8-3.7 2.1-10.4 5.8-14.8 8.2-4.4 2.3-18.6 10-31.5 17-12.9 7-27.5 14.9-32.5 17.5-4.9 2.7-13.5 7.3-19 10.3-5.5 2.9-13.4 7.2-17.5 9.4s-10.2 5.5-13.5 7.3c-3.3 1.8-11.8 6.4-19 10.3-14.6 7.8-19.7 10.6-37 19.9-14 7.6-14.1 7.7-56 30.3-17.6 9.5-34.2 18.5-37 20-8.7 4.8-20.8 11.3-26.5 14.3-3 1.6-7.3 3.9-9.5 5.1-2.2 1.2-8.5 4.6-13.9 7.5-5.4 2.9-13.9 7.5-18.7 10.2-4.9 2.7-9.1 4.9-9.3 4.9-.2 0-4.7 2.5-10.1 5.5-5.3 3-9.8 5.5-10 5.5-.2 0-7.5 3.9-16.2 8.6-8.7 4.7-18.5 10.1-21.8 11.9-3.3 1.8-9.6 5.1-14 7.5-4.4 2.3-13.2 7.1-19.5 10.5-6.3 3.4-15.5 8.4-20.5 11.1-4.9 2.6-10.8 5.8-13 7-2.2 1.3-7.9 4.3-12.7 6.8-4.7 2.5-10.4 5.5-12.5 6.7-4.2 2.4-9.2 5.1-23.3 12.7-5.2 2.8-18.9 10.2-30.5 16.5l-21 11.4v961.4l6 3.3c13.2 7.2 58.4 31.6 65 35.1 3.9 2.1 9.7 5.2 13 7 3.3 1.8 8.9 4.8 12.5 6.8 3.6 1.9 9 4.8 12 6.5 3 1.6 22.4 12.1 43 23.2s40.2 21.7 43.5 23.5c3.3 1.8 10.1 5.4 15 8 5 2.6 9.5 5.1 10 5.5.6.4 6 3.3 12 6.5 6.1 3.2 12.4 6.6 14 7.5 1.7.9 7.1 3.8 12 6.5 5 2.6 13.7 7.4 19.5 10.5 5.8 3.2 13.7 7.4 17.5 9.5 3.9 2.1 9.7 5.2 13 7 3.3 1.8 22.8 12.4 43.3 23.4 20.6 11.1 40.3 21.7 43.8 23.6 3.5 1.9 9.2 5 12.6 6.9 3.5 1.8 14.4 7.7 24.3 13.1 9.9 5.4 21.3 11.6 25.4 13.7 4.1 2.2 9.7 5.2 12.5 6.7 2.8 1.6 9.2 5 14.1 7.6 5 2.6 10.4 5.6 12 6.5 1.7 1 7.5 4.1 13 7 5.5 2.9 10.5 5.6 11 6 .6.4 6 3.3 12 6.5 6.1 3.2 12.4 6.6 14 7.5 1.7 1 6.6 3.7 11 6 4.4 2.4 10 5.4 12.5 6.8 2.5 1.3 8.3 4.5 13 7 4.7 2.4 10.8 5.7 13.5 7.2 2.8 1.5 8.2 4.4 12 6.5 3.9 2.1 11.7 6.4 17.5 9.5 5.8 3.1 14.6 7.9 19.5 10.5 5 2.7 10.8 5.8 13 7 4.2 2.3 12 6.6 26.5 14.2 4.7 2.5 9.9 5.4 11.5 6.3 1.7 1 6.4 3.5 10.5 5.8 6.6 3.5 33.8 18.2 50.5 27.2 3.3 1.8 8.7 4.7 12 6.5 3.3 1.8 20 10.8 37 20 17.1 9.2 34.8 18.8 39.5 21.2 4.7 2.5 9.9 5.3 11.5 6.3 1.7 1 6.4 3.5 10.5 5.7s27.3 14.7 51.5 27.8c24.2 13 47.4 25.5 51.5 27.8 4.1 2.2 9.3 5 11.5 6.2 2.2 1.2 6.9 3.8 10.5 5.7 7.2 3.9 30.2 16.3 39.5 21.3 3.3 1.8 8.7 4.7 12 6.5 3.3 1.8 9.4 5 13.5 7.2s10.4 5.6 14 7.6c12.3 6.7 17 9.2 22.3 12.1 2.8 1.5 8.8 4.8 13.2 7.1 4.4 2.3 10 5.4 12.5 6.8 6.9 3.8 24 13 28.5 15.3l4.1 2.1 16.4-8.9c9.1-4.9 20.6-11.1 25.5-13.8 5-2.6 19.1-10.2 31.5-17 12.4-6.7 26.1-14.1 30.5-16.5 7.5-4 38.4-20.7 50.5-27.3 6.7-3.6 14.4-7.7 27.5-14.7 5.5-2.9 10.5-5.6 11-6 .6-.4 4.2-2.4 8-4.4 3.9-2 7.7-4.1 8.5-4.6.8-.5 6.9-3.8 13.5-7.3 19.4-10.4 25.7-13.8 31-16.7 2.8-1.5 11.1-6 18.5-10s33.1-17.9 57-30.8c23.9-12.9 46-24.8 49-26.4 6.6-3.5 15.2-8.2 24-13 3.6-1.9 10.6-5.7 15.5-8.3 5-2.7 15.9-8.6 24.3-13.2s15.5-8.3 15.7-8.3c.2 0 3-1.5 6.2-3.3 3.2-1.9 9.6-5.4 14.3-7.9 4.7-2.5 13-7 18.5-10s15.4-8.3 22-11.8c6.6-3.4 12.5-6.6 13-7.1.6-.4 4.6-2.6 9-4.9 4.4-2.3 10.3-5.5 13-7 6.7-3.7 15.9-8.6 28-15 5.5-2.9 10.5-5.6 11-6 .6-.4 4.2-2.4 8-4.4 7.8-4.1 11.4-6.1 39.5-21.3 10.7-5.8 22.9-12.4 27-14.6 4.1-2.2 9.8-5.2 12.5-6.7 2.8-1.5 7.9-4.3 11.5-6.3 42.1-22.7 56.9-30.7 65-35 5.2-2.7 10-5.3 10.5-5.7.6-.4 5.5-3.1 11-6s11.4-6 13-7c1.7-1 6.5-3.6 10.9-5.9 4.3-2.3 13.1-7 19.5-10.5s15.4-8.3 20.1-10.8c4.7-2.5 10.5-5.7 13-7 4.6-2.6 13-7.1 23.5-12.8 3.3-1.8 10.3-5.5 15.5-8.3 5.2-2.7 10-5.3 10.5-5.7.6-.4 5.5-3.1 11-6s12.3-6.5 15-8c2.8-1.5 8.6-4.7 13-7 4.4-2.4 11.1-6.1 14.8-8.2 3.8-2.1 7-3.8 7.3-3.8.2 0 6.8-3.5 14.6-7.8 7.9-4.4 17.5-9.6 21.3-11.6 3.9-2 7.7-4.1 8.5-4.6.8-.5 7.1-3.9 14-7.6 6.9-3.7 14.8-7.9 17.5-9.4 2.8-1.5 8.2-4.4 12-6.5 3.9-2.1 9.8-5.3 13.3-7.1 3.4-1.9 9-4.9 12.5-6.8 31.4-16.9 82.4-44.5 87.2-47.1 3.3-1.8 11.6-6.3 18.5-10s15.2-8.2 18.5-10c15.7-8.5 46.8-25.3 53.5-28.9 4.1-2.3 16.4-8.8 27.2-14.6l19.8-10.5-.3-234.3-.2-234.3-6.5-3.5c-3.6-2-10.3-5.6-15-8.1-4.7-2.5-10.7-5.8-13.5-7.3-8.5-4.6-28.7-15.6-35.5-19.2-3.6-2-8.5-4.7-11-6-2.5-1.4-8.5-4.7-13.5-7.3-4.9-2.6-11.4-6-14.2-7.6-13.2-7.2-16.3-8.9-23.8-12.9-4.4-2.4-18.6-10-31.5-17-12.9-7-27.1-14.6-31.5-17-4.4-2.3-10.2-5.5-13-7-2.7-1.5-7.9-4.3-11.5-6.3-3.6-1.9-17.5-9.4-31-16.7-13.5-7.3-27.6-15-31.5-17-3.8-2-10.1-5.4-14-7.5-14.9-8.1-17.2-9.3-23.5-12.7-3.6-2-10.1-5.5-14.5-7.8-9.4-5.1-12.7-6.8-34.5-18.7-9.1-5-20.1-10.9-24.5-13.3-4.4-2.3-9.8-5.2-12-6.4-2.2-1.2-8.5-4.6-14-7.5-5.5-3-12-6.5-14.5-7.9-2.5-1.4-8.3-4.5-12.9-6.9-4.6-2.5-12.3-6.6-17-9.2-4.7-2.6-13.1-7.2-18.6-10.1-5.5-3-13.1-7.1-17-9.1l-7-3.8-.2-227.8c-.1-125.3-.2-231-.3-234.8v-7l-11.8-6.2c-19.7-10.5-30.4-16.3-36.2-19.5-3-1.7-9.1-5-13.5-7.3-4.4-2.4-12.7-6.8-18.5-10-5.8-3.2-15.2-8.2-21-11.3-5.8-3-10.9-5.8-11.5-6.2-.5-.4-4.8-2.8-9.5-5.3-4.7-2.4-11.5-6-15.1-7.9-3.6-2-7.7-4.2-9-5-1.3-.9-6.2-3.6-10.9-6-9.3-4.9-12.8-6.8-48.5-26.1-13.2-7.1-27.4-14.7-31.5-17-9.4-5-18-9.7-24.5-13.2-2.7-1.5-8.4-4.6-12.5-6.8s-9.7-5.2-12.5-6.7c-5.7-3.2-12.6-6.9-24-13-4.4-2.4-12.7-6.9-18.5-10-5.8-3.1-13.6-7.4-17.5-9.5-3.8-2-9.7-5.2-13-7-3.3-1.8-9.6-5.2-14-7.5-4.4-2.4-10.2-5.5-13-7-2.7-1.5-9-4.9-14-7.5-4.9-2.7-10.2-5.7-11.7-6.7-1.6-1.1-2.8-1.7-2.8-1.4 0 .3-2.6-1-5.7-2.8-3.2-1.8-9.4-5.2-13.8-7.6-4.4-2.4-10.2-5.5-13-7-2.7-1.5-8.6-4.6-13-7-4.4-2.3-10.2-5.5-13-7-10.5-5.7-16.3-8.8-23.5-12.7-26.1-14.1-41.4-22.3-47.9-25.9-3.1-1.7-9.4-5.1-14.1-7.6-4.7-2.5-10.1-5.4-12-6.5-1.9-1.1-8-4.3-13.5-7.3-5.5-2.9-12-6.4-14.5-7.8-2.5-1.4-7.9-4.3-12-6.4-4.1-2.2-12.2-6.6-18-9.8-5.8-3.1-13.9-7.5-18-9.8-4.1-2.2-10.1-5.4-13.3-7.1-3.1-1.7-6.1-3.1-6.5-3-.4 0-7.7 3.8-16.2 8.5zm26 164.2c3 1.6 8 4.2 11 5.9 3 1.6 9.1 4.9 13.5 7.3 4.4 2.4 8.5 4.6 9 5 .6.4 6.9 3.7 14 7.5 7.2 3.7 13.5 7.1 14 7.5.6.4 6 3.3 12 6.5 6.1 3.2 12.4 6.6 14 7.5 1.7 1 6.6 3.7 11 6 4.4 2.4 10 5.4 12.5 6.8 2.5 1.3 8.3 4.5 13 7 4.7 2.4 10.3 5.5 12.5 6.7 2.2 1.2 7.4 4 11.5 6.2s10.2 5.5 13.5 7.3c35.6 19.3 68.4 37 74.5 40.2 4.1 2.2 8.9 4.8 10.5 5.8 1.7.9 7.5 4.1 13 7 5.5 2.9 17.9 9.5 27.5 14.8 9.6 5.2 20.9 11.3 25 13.5 4.1 2.2 12 6.5 17.5 9.5s14.7 7.9 20.5 10.9c5.8 3.1 11 5.9 11.5 6.3.6.4 6 3.3 12 6.5 6.1 3.3 13.2 7.1 15.8 8.7 2.6 1.5 5 2.8 5.2 2.8.2 0 7.8 4 16.7 8.9 9 4.8 25.3 13.7 36.3 19.6 11 5.9 21.8 11.7 24 13 2.2 1.2 9.7 5.2 16.8 9 7 3.7 12.7 7.1 12.7 7.4 0 .3-5.5 3.6-12.3 7.2-6.7 3.7-26.5 14.3-43.9 23.8-17.4 9.4-32 17.1-32.4 17.1-.4 0-1.5.6-2.3 1.4-.9.7-7 4.1-13.6 7.6-12.7 6.7-31 16.5-33.5 18-.8.5-4.2 2.3-7.5 4.1-3.3 1.7-10.7 5.7-16.5 8.9-11.8 6.4-19.7 10.7-31.5 17-4.4 2.4-21.5 11.6-38 20.5s-33.6 18.1-38 20.5c-4.4 2.4-10.2 5.5-13 7-10.6 5.8-16.2 8.8-22.5 12.2-3.6 1.9-26.3 14.2-50.5 27.3-24.2 13-47.4 25.6-51.5 27.8-8 4.2-14.1 7.6-23 12.4-10.5 5.7-29.5 16-32.5 17.5-1.6.9-5 2.7-7.5 4-2.5 1.4-7.6 4.2-11.5 6.3-3.8 2-9.2 5-12 6.5-2.7 1.5-7.9 4.3-11.5 6.2-5.7 3.1-17.4 9.4-37.5 20.3-13.5 7.3-44.4 24-50.5 27.3-3.6 1.9-9.2 4.9-12.5 6.7-3.3 1.8-8.5 4.6-11.5 6.2-3 1.7-11.4 6.2-18.6 10.1-7.3 4-13.7 7.2-14.3 7.2-.6 0-1.1.4-1.1 1 0 .5-.4 1-.8 1-.5 0-8.4 4.1-17.8 9.1-26.5 14.3-28.6 15.5-34.4 18.6-3 1.7-9.1 4.9-13.5 7.3-4.4 2.3-10.2 5.5-13 7-7.8 4.3-41 22.2-51 27.5-4.9 2.6-10.3 5.6-12 6.5-1.6 1-6.6 3.7-11 6-10.5 5.6-18.7 10-31.5 17-5.8 3.2-14.1 7.7-18.5 10s-10.2 5.5-13 7c-5.6 3.1-14.8 8.1-24.5 13.2-3.6 2-20.2 10.9-37 20s-35 18.9-40.5 21.8c-5.5 2.9-10.4 5.6-11 6-.5.4-5.5 3.1-11 6s-14.7 7.9-20.5 11c-12.2 6.7-13.6 7.4-54 29.2-16.8 9.1-35 18.9-40.5 21.8-5.5 2.9-11.6 6.2-13.5 7.3-3.8 2.2-9.5 5.2-21.1 11.5l-7.6 4.1-4.4-2.6c-2.4-1.4-9.1-5-14.9-8-5.8-3.1-10.9-5.9-11.5-6.3-.5-.4-5-2.9-10-5.5-16.6-8.8-24-12.7-29-15.5-2.7-1.5-8-4.4-11.8-6.4-8.3-4.5-14.6-7.9-36-19.5-9.2-5-16.9-9.1-17.1-9.1-.3 0-3.5-1.7-7.3-3.9-3.7-2.1-10.2-5.6-14.3-7.8-4.1-2.2-9.5-5.2-12-6.5-5.8-3.2-15.4-8.4-25.5-13.8-4.4-2.3-15.6-8.4-25-13.5-9.3-5.1-20.4-11-24.5-13.2-4.1-2.2-10-5.4-13-7-3-1.7-22.8-12.4-44-23.8s-49.7-26.9-63.5-34.3c-13.7-7.4-28.4-15.3-32.5-17.5-4.1-2.2-9.3-5-11.5-6.2-2.2-1.2-7-3.9-10.8-5.9-3.7-2-9.7-5.2-13.5-7.2-3.7-2-8.5-4.7-10.7-5.9-2.2-1.2-8-4.4-13-7-4.9-2.6-11.2-6-14-7.5-5.7-3.1-9.3-5.1-25.8-14-6.4-3.5-11.6-6.4-11.5-6.5.4-.3 53.4-28.8 59.8-32.2 2.5-1.3 5.2-2.8 6-3.3 1.8-1.1 24.6-13.4 31.5-16.9 2.8-1.4 5.2-2.8 5.5-3.1.3-.3 3.2-1.9 6.5-3.6 8.6-4.4 23.5-12.3 27-14.4 1.7-1 12-6.6 23-12.5s22.9-12.3 26.5-14.3c7.7-4.2 12.3-6.6 25-13.4 5.2-2.8 11.5-6.2 14-7.6 7.6-4.2 45.1-24.5 74-40 3.6-1.9 8.8-4.7 11.5-6.2 2.8-1.5 7.9-4.3 11.5-6.2 3.6-2 15.1-8.2 25.5-13.8 10.5-5.7 21.5-11.6 24.5-13.3 13.3-7.1 21-11.3 43.9-23.7 30-16.2 32.4-17.5 43.6-23.5 5-2.6 11.3-6 14-7.5 2.8-1.5 8.6-4.7 13-7 4.4-2.4 9.4-5.1 11-6 1.7-1 6.6-3.6 11-6s24.7-13.3 45-24.3c20.4-11 40.8-22 45.5-24.5 4.7-2.5 12.8-6.8 18-9.7 5.2-2.9 13.1-7.2 17.5-9.5 9.6-5.1 18.2-9.8 25-13.5 2.8-1.5 7.7-4.2 11-6 9.2-4.9 27.8-14.9 30-16.2 1.1-.6 5.2-2.8 9-4.8 3.9-2 8.8-4.6 11-5.9 2.2-1.2 8.5-4.6 14-7.6 5.5-2.9 13.9-7.5 18.8-10.1 4.8-2.7 8.9-4.9 9.2-4.9.3 0 2.2-1 4.3-2.3 2-1.3 8.4-4.8 14.2-7.9 5.8-3.1 13-6.9 16-8.6 4.7-2.5 23.6-12.7 49.8-26.8 3.4-1.9 9-4.9 12.5-6.8 3.4-1.8 8.9-4.8 12.2-6.6 3.3-1.8 11.2-6 17.5-9.5 6.3-3.4 15.4-8.3 20.2-10.8 4.7-2.6 10.1-5.5 12-6.5 1.8-1 6.9-3.8 11.3-6.2 4.4-2.3 10.3-5.5 13-7 2.8-1.5 9.5-5.1 15-8 5.5-3 12.2-6.6 14.8-8.2 2.6-1.5 4.9-2.8 5.1-2.8.2 0 10.5-5.4 22.8-12.1 12.2-6.7 25.7-13.9 29.8-16.1 4.1-2.3 9.8-5.3 12.5-6.8 2.8-1.5 8.6-4.7 13-7 8.8-4.7 11.6-6.2 38-20.5 27.5-14.9 29.3-15.9 39-21 5-2.7 9.9-5.4 11-6.2 2.5-1.7 2.1-1.7 8.5 1.5zm519.6 749.8c8.8 4.7 18.6 10.1 21.9 11.9 3.3 1.8 12.1 6.5 19.5 10.5s16.2 8.7 19.5 10.5c7.8 4.2 41.9 22.6 51.5 27.8 4.1 2.2 9.3 5 11.5 6.2 2.2 1.3 7.4 4.1 11.5 6.2 4.1 2.2 9.5 5.1 12 6.5 2.5 1.4 8.6 4.7 13.5 7.3 5 2.6 13.7 7.3 19.5 10.5 14 7.6 19 10.3 50 27 14.6 7.8 28.5 15.4 31 16.7 2.5 1.4 8.3 4.6 13 7 4.7 2.5 9.9 5.3 11.5 6.3 1.7 1 6.4 3.5 10.5 5.8 4.1 2.2 21.2 11.4 38 20.4 16.8 9.1 34.6 18.7 39.5 21.3 5 2.6 10.4 5.6 12 6.5 1.7 1 6.4 3.5 10.5 5.7s12.9 7 19.5 10.5c6.6 3.6 16.1 8.7 21 11.3 5 2.6 9.5 5.1 10 5.5.6.4 5.3 3 10.5 5.8 22.4 11.8 31 16.6 31 17.2 0 .4-2.8 2.2-6.2 4-3.5 1.8-11.5 6-17.8 9.5-6.3 3.4-14.6 7.9-18.5 10-3.8 2-9.2 5-12 6.5-2.7 1.5-9.9 5.3-16 8.5-6 3.2-11.4 6.1-12 6.5-.5.4-5 2.9-10 5.5-4.9 2.6-11.5 6.1-14.5 7.8-12.6 6.9-16.7 9.1-42 22.7-14.6 7.9-40.1 21.6-56.7 30.6s-33.7 18.2-38 20.5c-4.3 2.3-16.1 8.7-26.3 14.2s-21.4 11.5-25 13.5c-3.6 1.9-7.8 4.2-9.5 5.2-1.6.9-6.9 3.8-11.7 6.4-19.5 10.3-26.6 14.1-33.8 18.1-4.1 2.3-11.5 6.4-16.5 9-8.5 4.6-25.9 13.9-39 21-3.3 1.8-17.5 9.4-31.5 17s-28 15.1-31 16.8c-8.7 4.7-16.9 9.1-24.5 13.2-3.8 2.1-9.2 5-12 6.5-2.7 1.5-8.6 4.6-13 7-4.4 2.4-10.2 5.5-13 7-2.7 1.5-14 7.6-25 13.5s-45 24.3-75.5 40.8c-30.5 16.5-58.8 31.8-62.9 33.9-4.1 2.2-9.7 5.2-12.5 6.7-2.8 1.6-8 4.4-11.6 6.3-17.3 9.4-32 17.3-36.5 19.8-2.7 1.5-8.8 4.8-13.5 7.3-4.7 2.5-24.2 13-43.5 23.4-19.2 10.5-38.8 21-43.5 23.5-4.7 2.5-10.5 5.7-13 7.1-2.5 1.3-8.1 4.4-12.5 6.7-14.3 7.7-20.9 11.2-24 13-1.6.9-6.8 3.8-11.5 6.2-9.8 5.3-74.8 40.3-102 55.1-53.8 29.1-54.7 29.6-76 41-4.1 2.2-9.3 5-11.5 6.2-4.7 2.6-12.4 6.8-25.2 13.6-5 2.7-11.1 6-13.4 7.4l-4.3 2.4-8.5-4.6c-4.7-2.5-9.9-5.4-11.6-6.3-1.6-1-6.8-3.8-11.5-6.3-4.7-2.4-18.8-10.1-31.5-16.9-12.6-6.9-26.1-14.2-30-16.3-10.4-5.6-21.4-11.5-27-14.5-2.7-1.5-16.5-8.9-30.5-16.5s-27.7-15-30.5-16.5c-6-3.2-17.3-9.3-27-14.5-3.8-2.1-11.7-6.3-17.5-9.5-5.8-3.1-14.5-7.8-19.5-10.5-4.9-2.6-10.3-5.6-12-6.5-1.6-1-6.4-3.5-10.5-5.8-4.1-2.2-16-8.6-26.5-14.2-10.4-5.7-21.9-11.8-25.5-13.8-3.6-1.9-8.7-4.7-11.5-6.2-2.7-1.5-8.4-4.6-12.5-6.8-7.7-4.1-51.8-27.9-62.5-33.7-3.3-1.8-9.6-5.2-14-7.5-4.4-2.4-12.9-7-19-10.3-12-6.6-10.8-5.9-44.7-24.2l-23.8-12.8 12.3-6.7c6.8-3.7 17.3-9.3 23.3-12.5 6-3.2 11.4-6.1 11.9-6.5.6-.4 5.8-3.3 11.7-6.4 5.9-3.1 12.2-6.4 14-7.5 1.8-1 7.4-4 12.3-6.6 5-2.7 10.8-5.9 13-7.2 2.2-1.2 4.7-2.6 5.5-3 2-.9 50.4-26.9 55.5-29.8 3.9-2.2 9.4-5.2 25.5-13.7 4.1-2.2 10.2-5.5 13.5-7.3 3.3-1.8 9.2-5 13-7 3.9-2.1 8.8-4.8 11-6 2.2-1.2 7.6-4.1 12-6.5 4.4-2.3 10.3-5.5 13-7 2.8-1.5 8.2-4.4 12-6.5 3.9-2.1 9.3-5 12-6.5 2.8-1.5 8.6-4.7 13-7 4.4-2.4 15.4-8.3 24.5-13.3 9.1-4.9 17.4-9.3 18.5-9.8 1.1-.5 3.8-2 6-3.2 5.1-2.9 16.8-9.3 26.5-14.5 4.1-2.2 15.6-8.3 25.5-13.7 9.9-5.4 20.9-11.4 24.5-13.3 3.6-1.9 14.8-8 25-13.5s21.9-11.8 26-14c4.1-2.2 9.8-5.2 12.5-6.7 7.8-4.3 15.4-8.5 22.5-12.3 3.6-1.9 18-9.7 32-17.2 14-7.6 28-15.1 31-16.8 3-1.6 8.7-4.6 12.5-6.7 3.9-2 15.6-8.3 26-14 10.5-5.6 21.9-11.8 25.5-13.8 3.6-1.9 8.3-4.5 10.5-5.7 2.2-1.2 9-4.8 15-8 6.1-3.2 11.5-6.1 12-6.5.6-.4 5.1-2.9 10-5.5 5-2.6 11.5-6.1 14.5-7.8 3-1.6 8.9-4.8 13-7 4.1-2.1 9.3-5 11.5-6.2 2.2-1.2 6.9-3.8 10.5-5.7 7.3-3.9 106.7-57.5 114.5-61.8 6.5-3.5 27.9-15.1 37.5-20.3 15.4-8.2 20.7-11.1 27.3-14.9 3.8-2.1 7-3.8 7.2-3.8.3 0 18.3-9.7 40.5-21.8 3.6-1.9 9.4-5.1 13-7 3.6-1.9 9.2-4.9 12.5-6.7 3.3-1.8 17-9.2 30.5-16.5 33.1-17.8 38.9-21 43-23.3 1.9-1.1 7.6-4.1 12.5-6.7 5-2.6 11.9-6.4 15.3-8.4 3.5-2 6.5-3.6 6.7-3.6.2 0 7.4-3.8 16.1-8.5 8.6-4.7 18.9-10.3 22.8-12.4 21.3-11.4 25.3-13.5 27.1-14.8 2.5-1.7 2.6-1.7 21.1 8.3z"/></svg>